<?xml version="1.0" standalone="no"?>
<!DOCTYPE svg PUBLIC "-//W3C//DTD SVG 20010904//EN"
 "http://www.w3.org/TR/2001/REC-SVG-20010904/DTD/svg10.dtd">
<svg version="1.0" xmlns="http://www.w3.org/2000/svg"
 width="756.000000pt" height="505.000000pt" viewBox="0 0 756.000000 505.000000"
 preserveAspectRatio="xMidYMid meet">
<metadata>
Created by potrace 1.16, written by Peter Selinger 2001-2019
</metadata>
<g transform="translate(0.000000,505.000000) scale(0.100000,-0.100000)"
fill="#000000" stroke="none">
<path d="M1937 4231 c-21 -16 -38 -32 -37 -35 2 -11 -35 -51 -50 -54 -8 -2
-42 -30 -75 -62 -33 -32 -76 -71 -95 -87 -81 -65 -94 -81 -82 -96 9 -10 9 -22
3 -38 -10 -26 -325 -332 -347 -337 -8 -2 -12 -7 -9 -12 3 -4 -14 -25 -38 -45
-23 -21 -112 -106 -197 -189 -85 -84 -274 -266 -419 -406 -146 -140 -338 -327
-428 -415 l-164 -160 3 -142 3 -142 65 61 c36 33 178 171 316 307 138 135 318
309 400 386 82 77 196 185 254 241 58 55 127 120 153 145 208 193 480 473 526
543 68 100 129 216 136 256 5 29 4 30 -16 19 -12 -6 -33 -23 -46 -38 -47 -51
32 71 147 226 54 73 66 104 42 103 -4 0 -24 -14 -45 -29z"/>
<path d="M2115 3804 c-100 -89 -131 -120 -170 -169 -56 -70 -112 -121 -136
-122 -18 -2 -19 0 -7 14 12 15 11 15 -9 2 -13 -7 -25 -20 -28 -28 -4 -11 -3
-12 10 -1 8 7 15 8 15 2 0 -5 -6 -15 -14 -21 -10 -9 -15 -8 -20 4 -9 25 -28
17 -86 -37 -73 -67 -248 -229 -269 -248 -39 -34 -247 -227 -271 -250 -15 -14
-64 -59 -110 -100 -73 -65 -223 -204 -270 -250 -8 -8 -37 -35 -65 -59 -58 -52
-272 -250 -325 -301 -20 -19 -58 -53 -84 -75 -25 -22 -68 -60 -94 -85 -63 -61
-123 -110 -134 -110 -4 0 -8 -7 -8 -16 0 -8 -5 -12 -10 -9 -23 14 -30 -56 -29
-273 0 -125 3 -220 6 -212 8 19 24 35 46 43 9 3 17 12 17 19 0 14 48 58 62 58
5 0 6 5 3 10 -3 5 -2 10 3 10 6 0 55 44 110 98 55 53 164 159 241 235 78 75
148 137 156 137 8 0 15 4 15 10 0 16 43 61 73 76 15 8 27 21 27 29 0 8 3 15 8
15 7 0 97 85 134 126 10 10 42 42 73 69 31 28 85 77 120 110 35 33 87 80 115
105 29 25 75 67 103 93 73 68 157 141 168 145 5 2 9 10 9 18 0 8 4 14 9 14 8
0 44 31 106 91 6 5 25 24 44 42 161 151 270 286 329 406 18 35 37 70 43 77 6
8 13 32 15 54 4 37 2 40 -14 31 -10 -5 -24 -17 -32 -25 -7 -9 -17 -16 -22 -16
-8 0 32 60 133 200 88 120 91 132 14 64z"/>
<path d="M1529 3409 c-85 -78 -188 -174 -229 -213 -41 -39 -160 -150 -265
-246 -104 -96 -260 -240 -345 -320 -241 -224 -409 -380 -475 -439 -33 -30 -85
-79 -115 -108 -30 -29 -66 -61 -78 -71 -15 -11 -23 -26 -20 -39 3 -19 12 -13
78 48 41 38 74 74 72 79 -1 6 3 10 9 10 6 0 17 6 24 13 8 6 44 39 81 72 101
90 132 119 214 199 76 73 563 528 715 666 104 95 349 324 438 408 63 61 78 82
58 82 -5 0 -78 -64 -162 -141z"/>
</g>
</svg>
