<?xml version="1.0" encoding="UTF-8"?>
<svg version="1.1" xmlns="http://www.w3.org/2000/svg" width="500" height="500">
<path d="M0 0 C165 0 330 0 500 0 C500 165 500 330 500 500 C335 500 170 500 0 500 C0 335 0 170 0 0 Z " fill="#F9F9F9" transform="translate(0,0)"/>
<path d="M0 0 C7.59 0 15.18 0 23 0 C25.50572818 5.6378884 27.87979974 11.13745027 29.9453125 16.921875 C30.2012619 17.62975159 30.4572113 18.33762817 30.72091675 19.06695557 C31.52538036 21.2935328 32.32539812 23.52167279 33.125 25.75 C33.93260952 27.99228704 34.74116089 30.23423018 35.55050659 32.47589111 C36.05034115 33.86116105 36.54904427 35.24683995 37.04641724 36.63299561 C38.30015136 40.11659692 39.59992751 43.57249116 41 47 C41.27521988 46.20526276 41.27521988 46.20526276 41.55599976 45.39447021 C43.46700628 39.87789 45.38181338 34.36263969 47.29882812 28.84814453 C48.01367082 26.7902149 48.72754531 24.73194868 49.44042969 22.67333984 C50.46555002 19.71362614 51.49415144 16.75514218 52.5234375 13.796875 C52.84122162 12.87694763 53.15900574 11.95702026 53.48641968 11.00921631 C53.7865799 10.1486261 54.08674011 9.28803589 54.39599609 8.40136719 C54.78904434 7.26885529 54.78904434 7.26885529 55.19003296 6.11346436 C55.99263507 4.01921748 56.99700049 2.00599903 58 0 C65.59 0 73.18 0 81 0 C81 1.98 81 3.96 81 6 C78.03 6 75.06 6 72 6 C72 25.8 72 45.6 72 66 C76.29 66 80.58 66 85 66 C85 66.66 85 67.32 85 68 C87.31 68 89.62 68 92 68 C92 47.54 92 27.08 92 6 C89.03 6 86.06 6 83 6 C83 4.02 83 2.04 83 0 C90.2265322 -0.05058332 97.45301899 -0.08568412 104.6796875 -0.10986328 C107.13966579 -0.11993983 109.59963206 -0.13360131 112.05957031 -0.15087891 C115.58922285 -0.17505461 119.11871747 -0.1864664 122.6484375 -0.1953125 C124.30629776 -0.21079636 124.30629776 -0.21079636 125.99765015 -0.22659302 C127.52901108 -0.22681961 127.52901108 -0.22681961 129.09130859 -0.22705078 C129.99287689 -0.231492 130.89444519 -0.23593323 131.82333374 -0.24050903 C134 0 134 0 136 2 C136.22705078 4.15478516 136.22705078 4.15478516 136.1953125 6.7890625 C136.18564453 8.20058594 136.18564453 8.20058594 136.17578125 9.640625 C136.15064453 11.11789063 136.15064453 11.11789063 136.125 12.625 C136.11597656 13.61757812 136.10695313 14.61015625 136.09765625 15.6328125 C136.07404116 18.08878134 136.04110799 20.54427168 136 23 C134.68 23 133.36 23 132 23 C130.48877968 21.48877968 130.51761215 19.83015558 130.125 17.75 C129.32407193 13.99639682 128.33708282 11.11611043 126 8 C122.70374704 6.35187352 119.00541525 6.61750669 115.375 6.4375 C112.61125 6.293125 109.8475 6.14875 107 6 C107 14.58 107 23.16 107 32 C109.97 31.67 112.94 31.34 116 31 C116.99 28.03 117.98 25.06 119 22 C120.65 22 122.3 22 124 22 C124 30.58 124 39.16 124 48 C122.68 48.33 121.36 48.66 120 49 C117.70366176 45.55549263 117.45983515 43.06187717 117 39 C113.7 38.67 110.4 38.34 107 38 C107 47.9 107 57.8 107 68 C109.8875 67.87625 112.775 67.7525 115.75 67.625 C116.65331055 67.59100098 117.55662109 67.55700195 118.48730469 67.52197266 C119.56866699 67.46855713 119.56866699 67.46855713 120.671875 67.4140625 C121.4050293 67.3826416 122.13818359 67.3512207 122.89355469 67.31884766 C125.3186974 66.95175953 126.93332621 66.31991566 129 65 C131.51499462 60.16347189 132.7913685 55.29938426 134 50 C135.9375 49.4375 135.9375 49.4375 138 49 C140.41816166 51.41816166 139.18547019 57.68777819 139.1875 60.9375 C139.19974609 61.96552734 139.21199219 62.99355469 139.22460938 64.05273438 C139.22654297 65.03435547 139.22847656 66.01597656 139.23046875 67.02734375 C139.23457764 67.93218506 139.23868652 68.83702637 139.24291992 69.76928711 C139 72 139 72 137 74 C134.70944214 74.24050903 134.70944214 74.24050903 131.81591797 74.22705078 C130.73494843 74.22689972 129.65397888 74.22674866 128.54025269 74.22659302 C127.36939117 74.21627045 126.19852966 74.20594788 124.9921875 74.1953125 C123.1985527 74.19106766 123.1985527 74.19106766 121.36868286 74.18673706 C117.53735481 74.17551305 113.70625778 74.15040431 109.875 74.125 C107.28255545 74.11497308 104.69010725 74.10584673 102.09765625 74.09765625 C95.73169158 74.07556646 89.36586229 74.04206706 83 74 C82.67 72.68 82.34 71.36 82 70 C81.505 71.98 81.505 71.98 81 74 C77.7 74 74.4 74 71 74 C71 73.01 71 72.02 71 71 C70.01 71.99 69.02 72.98 68 74 C67.34 73.67 66.68 73.34 66 73 C65.67 73.33 65.34 73.66 65 74 C62.64686445 74.07271741 60.29166332 74.08370868 57.9375 74.0625 C56.00197266 74.04896484 56.00197266 74.04896484 54.02734375 74.03515625 C53.02832031 74.02355469 52.02929688 74.01195312 51 74 C51 72.35 51 70.7 51 69 C53.31 69 55.62 69 58 69 C57.67 53.16 57.34 37.32 57 21 C54.54314537 28.77577141 54.54314537 28.77577141 52.09472656 36.55419922 C50.23557629 42.40091284 48.21753506 48.11125098 45.88378906 53.78466797 C44.65808672 56.85705003 43.69436263 59.95463973 42.75 63.125 C42.41484375 64.24132812 42.0796875 65.35765625 41.734375 66.5078125 C41.49203125 67.33023438 41.2496875 68.15265625 41 69 C39.68 68.34 38.36 67.68 37 67 C37.92184323 61.20555681 37.92184323 61.20555681 38.67578125 59.22265625 C39.16112702 55.89540633 37.9232031 53.24842183 36.75 50.1875 C36.19852786 48.68645156 35.6478152 47.18512399 35.09765625 45.68359375 C34.61449951 44.38010986 34.61449951 44.38010986 34.12158203 43.05029297 C32.01973313 37.33403259 29.98020309 31.59540286 27.93884277 25.85733032 C27.1949832 23.77098853 26.44592528 21.68656701 25.69628906 19.60229492 C25.22832817 18.29222189 24.76054717 16.98208459 24.29296875 15.671875 C23.8755542 14.5075293 23.45813965 13.34318359 23.02807617 12.14355469 C22.13889819 9.42470982 21.48205609 6.81512835 21 4 C19.02 4.33 17.04 4.66 15 5 C16.26841497 8.68833592 17.54004961 12.37555443 18.8125 16.0625 C19.20687256 17.2067041 19.60124512 18.3509082 20.00756836 19.52978516 C22.31329349 26.19772925 24.65513504 32.85068838 27.046875 39.48828125 C27.55366689 40.89899375 28.06042173 42.30971956 28.56713867 43.72045898 C29.31141305 45.79188488 30.05789922 47.86237312 30.81143188 49.93045044 C31.51653579 51.86574938 32.21398487 53.80366085 32.91015625 55.7421875 C33.31371338 56.8544873 33.71727051 57.96678711 34.13305664 59.11279297 C35 62 35 62 35 66 C33.11328125 65.76953125 33.11328125 65.76953125 31 65 C29.98046875 63.19921875 29.98046875 63.19921875 29.1875 60.6875 C28.86136719 59.70007813 28.53523438 58.71265625 28.19921875 57.6953125 C27.80347656 56.47585938 27.40773438 55.25640625 27 54 C26.14880643 51.55052961 25.28389885 49.10610629 24.41918945 46.66137695 C21.52184751 38.46955625 18.7481923 30.2445769 16 22 C15.67 36.52 15.34 51.04 15 66 C15.99 66 16.98 66 18 66 C18 66.66 18 67.32 18 68 C19.65 68 21.3 68 23 68 C23 69.98 23 71.96 23 74 C20.69 74 18.38 74 16 74 C16 78.95 16 83.9 16 89 C16.66 89.33 17.32 89.66 18 90 C17.01 90 16.02 90 15 90 C15 82.74 15 75.48 15 68 C14.34 68 13.68 68 13 68 C12.67 75.26 12.34 82.52 12 90 C11.01 89.67 10.02 89.34 9 89 C9.66 89 10.32 89 11 89 C11 84.05 11 79.1 11 74 C7.7 74 4.4 74 1 74 C1 72.35 1 70.7 1 69 C3.64 69 6.28 69 9 69 C9 48.21 9 27.42 9 6 C6.03 6 3.06 6 0 6 C0 4.02 0 2.04 0 0 Z " fill="#121212" transform="translate(272,224)"/>
<path d="M0 0 C8.37363432 7.09310853 14.73245444 15.81594578 15.69140625 27 C15.95048788 39.21954222 13.95167005 48.20991861 6.52734375 58.20703125 C5.09046928 60.13751551 5.09046928 60.13751551 5.35546875 63.08203125 C4.69546875 64.07203125 4.03546875 65.06203125 3.35546875 66.08203125 C3.35546875 65.42203125 3.35546875 64.76203125 3.35546875 64.08203125 C0.32253921 65.22286301 0.32253921 65.22286301 -2.64453125 67.08203125 C-3.61359952 69.66617551 -3.61359952 69.66617551 -3.64453125 72.08203125 C-0.67453125 72.08203125 2.29546875 72.08203125 5.35546875 72.08203125 C4.36546875 72.74203125 3.37546875 73.40203125 2.35546875 74.08203125 C3.43828125 75.16484375 3.43828125 75.16484375 4.54296875 76.26953125 C5.47109375 77.19765625 6.39921875 78.12578125 7.35546875 79.08203125 C8.74765625 80.41234375 8.74765625 80.41234375 10.16796875 81.76953125 C12.35546875 84.08203125 12.35546875 84.08203125 12.35546875 86.08203125 C9.51973747 86.13990332 7.94285784 86.12098285 5.35546875 85.08203125 C2.602472 82.36092249 0.35524811 79.39473566 -1.64453125 76.08203125 C-1.64453125 75.42203125 -1.64453125 74.76203125 -1.64453125 74.08203125 C-2.30453125 74.08203125 -2.96453125 74.08203125 -3.64453125 74.08203125 C-3.64453125 77.38203125 -3.64453125 80.68203125 -3.64453125 84.08203125 C-2.98453125 84.08203125 -2.32453125 84.08203125 -1.64453125 84.08203125 C-1.64453125 84.74203125 -1.64453125 85.40203125 -1.64453125 86.08203125 C-4.94453125 86.08203125 -8.24453125 86.08203125 -11.64453125 86.08203125 C-11.64453125 85.42203125 -11.64453125 84.76203125 -11.64453125 84.08203125 C-10.98453125 84.08203125 -10.32453125 84.08203125 -9.64453125 84.08203125 C-9.64453125 79.46203125 -9.64453125 74.84203125 -9.64453125 70.08203125 C-11.62453125 70.57703125 -11.62453125 70.57703125 -13.64453125 71.08203125 C-19.96294351 71.39795186 -25.87323328 70.96768024 -31.64453125 68.08203125 C-31.14953125 76.49703125 -31.14953125 76.49703125 -30.64453125 85.08203125 C-31.63453125 85.08203125 -32.62453125 85.08203125 -33.64453125 85.08203125 C-34.13953125 75.67703125 -34.13953125 75.67703125 -34.64453125 66.08203125 C-34.97453125 72.35203125 -35.30453125 78.62203125 -35.64453125 85.08203125 C-37.12953125 84.58703125 -37.12953125 84.58703125 -38.64453125 84.08203125 C-38.14953125 83.58703125 -38.14953125 83.58703125 -37.64453125 83.08203125 C-37.4883257 81.66875178 -37.39396952 80.24848535 -37.328125 78.828125 C-37.28623047 77.97412109 -37.24433594 77.12011719 -37.20117188 76.24023438 C-37.16185547 75.34240234 -37.12253906 74.44457031 -37.08203125 73.51953125 C-37.03884766 72.61783203 -36.99566406 71.71613281 -36.95117188 70.78710938 C-36.84474983 68.5522464 -36.74273137 66.31726817 -36.64453125 64.08203125 C-39.57896527 64.34859697 -39.57896527 64.34859697 -42.64453125 65.08203125 C-43.30453125 66.07203125 -43.96453125 67.06203125 -44.64453125 68.08203125 C-45.30453125 68.08203125 -45.96453125 68.08203125 -46.64453125 68.08203125 C-46.31453125 65.77203125 -45.98453125 63.46203125 -45.64453125 61.08203125 C-44.15953125 60.58703125 -44.15953125 60.58703125 -42.64453125 60.08203125 C-43.40765625 59.05078125 -44.17078125 58.01953125 -44.95703125 56.95703125 C-51.77563622 47.30697167 -53.84727724 36.82022315 -52.64453125 25.08203125 C-50.10314113 13.95774275 -43.89751454 5.24672628 -34.85546875 -1.54296875 C-23.80310051 -8.41652638 -10.35941375 -7.51325281 0 0 Z " fill="#F7F7F7" transform="translate(185.64453125,228.91796875)"/>
<path d="M0 0 C5.04955333 -0.12496991 10.09817809 -0.21497363 15.14892578 -0.2746582 C16.86165069 -0.29957583 18.57427181 -0.33352329 20.28662109 -0.37719727 C42.15277489 -0.92033668 42.15277489 -0.92033668 50.79272461 6.55004883 C54.88448477 11.17037874 55.35017779 15.51912959 55.28125 21.4296875 C54.70916592 26.65790036 52.21174737 29.87480601 48.375 33.4375 C46 35 46 35 44 35 C44 35.66 44 36.32 44 37 C44.721875 37.165 45.44375 37.33 46.1875 37.5 C51.00693666 40.07036622 53.30947628 44.92842885 55 50 C55.14403348 51.33363703 55.24590423 52.67218046 55.31640625 54.01171875 C55.35830078 54.76904297 55.40019531 55.52636719 55.44335938 56.30664062 C55.48267578 57.09232422 55.52199219 57.87800781 55.5625 58.6875 C55.60568359 59.48478516 55.64886719 60.28207031 55.69335938 61.10351562 C55.79927368 63.06881447 55.90012551 65.03438496 56 67 C58.97 67 61.94 67 65 67 C65 69.3125 65 69.3125 64 72 C58.56725573 74.76402779 54.05059951 75.78072252 48 75 C43.12929067 71.93325709 41.45114096 69.46311891 40 64 C39.79042832 61.71328113 39.64682835 59.41975319 39.5625 57.125 C39.1199056 49.77172118 38.38164563 44.38164563 33 39 C29.7 38.67 26.4 38.34 23 38 C23 48.23 23 58.46 23 69 C25.97 69 28.94 69 32 69 C32 70.65 32 72.3 32 74 C21.44 74 10.88 74 0 74 C0 72.35 0 70.7 0 69 C2.97 69 5.94 69 9 69 C9 48.21 9 27.42 9 6 C6.03 6 3.06 6 0 6 C0 4.02 0 2.04 0 0 Z " fill="#0A0A0A" transform="translate(415,224)"/>
<path d="M0 0 C10.56 0 21.12 0 32 0 C32 1.98 32 3.96 32 6 C29.03 6 26.06 6 23 6 C23 14.58 23 23.16 23 32 C30.92 32 38.84 32 47 32 C47 23.42 47 14.84 47 6 C44.03 6 41.06 6 38 6 C38 4.02 38 2.04 38 0 C48.56 0 59.12 0 70 0 C70 1.98 70 3.96 70 6 C67.03 6 64.06 6 61 6 C61 26.46 61 46.92 61 68 C63.97 68 66.94 68 70 68 C70 69.98 70 71.96 70 74 C59.44 74 48.88 74 38 74 C38 72.02 38 70.04 38 68 C40.64 68 43.28 68 46 68 C46 58.1 46 48.2 46 38 C38.41 38 30.82 38 23 38 C23 47.9 23 57.8 23 68 C25.97 68 28.94 68 32 68 C32 69.98 32 71.96 32 74 C21.44 74 10.88 74 0 74 C0 72.35 0 70.7 0 69 C2.97 69 5.94 69 9 69 C9 48.21 9 27.42 9 6 C6.03 6 3.06 6 0 6 C0 4.02 0 2.04 0 0 Z " fill="#121212" transform="translate(61,224)"/>
<path d="M0 0 C3.87370451 -0.26246434 7.74512381 -0.42153564 11.625 -0.5625 C13.26662109 -0.67561523 13.26662109 -0.67561523 14.94140625 -0.79101562 C22.85705993 -1.00689709 22.85705993 -1.00689709 25.87060547 1.64794922 C27.47074187 4.02030922 28.73049613 6.43604975 30 9 C31.10811545 10.82644905 32.23111337 12.64393414 33.3671875 14.453125 C34.53842477 16.38422537 35.70767284 18.31653351 36.875 20.25 C41.88288074 28.52144347 46.93209505 36.76465446 52 45 C52.33 32.13 52.66 19.26 53 6 C50.03 6 47.06 6 44 6 C44 4.02 44 2.04 44 0 C51.92 0 59.84 0 68 0 C68 1.98 68 3.96 68 6 C65.03 6 62.06 6 59 6 C59 28.77 59 51.54 59 75 C56.69 75 54.38 75 52 75 C50 72 50 72 50 68 C48.35 67.67 46.7 67.34 45 67 C45 74.59 45 82.18 45 90 C44.01 89.67 43.02 89.34 42 89 C42.66 89 43.32 89 44 89 C44 82.07 44 75.14 44 68 C43.34 68 42.68 68 42 68 C42 67.34 42 66.68 42 66 C43.32 66 44.64 66 46 66 C41.67696063 57.84512942 36.99504491 49.96345323 32.125 42.125 C30.7734375 39.94010417 29.421875 37.75520833 28.0703125 35.5703125 C27.18496826 34.14356201 27.18496826 34.14356201 26.28173828 32.68798828 C22.84411357 27.13173332 19.42429523 21.56447975 16 16 C15.67 32.5 15.34 49 15 66 C14.01 66 13.02 66 12 66 C12 66.66 12 67.32 12 68 C12.99 68.33 13.98 68.66 15 69 C14.67 70.65 14.34 72.3 14 74 C9.38 74 4.76 74 0 74 C0 72.02 0 70.04 0 68 C2.97 68 5.94 68 9 68 C9 47.54 9 27.08 9 6 C6.03 6 3.06 6 0 6 C0 4.02 0 2.04 0 0 Z " fill="#0F0F0F" transform="translate(203,224)"/>
<path d="M0 0 C7.59 0 15.18 0 23 0 C25.50572818 5.6378884 27.87979974 11.13745027 29.9453125 16.921875 C30.2012619 17.62975159 30.4572113 18.33762817 30.72091675 19.06695557 C31.52538036 21.2935328 32.32539812 23.52167279 33.125 25.75 C33.93260952 27.99228704 34.74116089 30.23423018 35.55050659 32.47589111 C36.05034115 33.86116105 36.54904427 35.24683995 37.04641724 36.63299561 C38.30015136 40.11659692 39.59992751 43.57249116 41 47 C41.27521988 46.20526276 41.27521988 46.20526276 41.55599976 45.39447021 C43.46700628 39.87789 45.38181338 34.36263969 47.29882812 28.84814453 C48.01367082 26.7902149 48.72754531 24.73194868 49.44042969 22.67333984 C50.46555002 19.71362614 51.49415144 16.75514218 52.5234375 13.796875 C52.84122162 12.87694763 53.15900574 11.95702026 53.48641968 11.00921631 C53.7865799 10.1486261 54.08674011 9.28803589 54.39599609 8.40136719 C54.78904434 7.26885529 54.78904434 7.26885529 55.19003296 6.11346436 C55.99263507 4.01921748 56.99700049 2.00599903 58 0 C65.59 0 73.18 0 81 0 C81 1.98 81 3.96 81 6 C78.03 6 75.06 6 72 6 C72 26.13 72 46.26 72 67 C70.515 67.495 70.515 67.495 69 68 C69 46.88 69 25.76 69 4 C66.69 4.33 64.38 4.66 62 5 C62 26.45 62 47.9 62 70 C63.65 70 65.3 70 67 70 C66.01 71.98 66.01 71.98 65 74 C60.38 74 55.76 74 51 74 C51 72.35 51 70.7 51 69 C53.31 69 55.62 69 58 69 C57.67 53.16 57.34 37.32 57 21 C54.54314537 28.77577141 54.54314537 28.77577141 52.09472656 36.55419922 C50.23557629 42.40091284 48.21753506 48.11125098 45.88378906 53.78466797 C44.65808672 56.85705003 43.69436263 59.95463973 42.75 63.125 C42.41484375 64.24132812 42.0796875 65.35765625 41.734375 66.5078125 C41.49203125 67.33023438 41.2496875 68.15265625 41 69 C39.68 68.34 38.36 67.68 37 67 C37.92184323 61.20555681 37.92184323 61.20555681 38.67578125 59.22265625 C39.16112702 55.89540633 37.9232031 53.24842183 36.75 50.1875 C36.19852786 48.68645156 35.6478152 47.18512399 35.09765625 45.68359375 C34.61449951 44.38010986 34.61449951 44.38010986 34.12158203 43.05029297 C32.01973313 37.33403259 29.98020309 31.59540286 27.93884277 25.85733032 C27.1949832 23.77098853 26.44592528 21.68656701 25.69628906 19.60229492 C25.22832817 18.29222189 24.76054717 16.98208459 24.29296875 15.671875 C23.8755542 14.5075293 23.45813965 13.34318359 23.02807617 12.14355469 C22.13889819 9.42470982 21.48205609 6.81512835 21 4 C19.02 4.33 17.04 4.66 15 5 C16.26841497 8.68833592 17.54004961 12.37555443 18.8125 16.0625 C19.20687256 17.2067041 19.60124512 18.3509082 20.00756836 19.52978516 C22.31329349 26.19772925 24.65513504 32.85068838 27.046875 39.48828125 C27.55366689 40.89899375 28.06042173 42.30971956 28.56713867 43.72045898 C29.31141305 45.79188488 30.05789922 47.86237312 30.81143188 49.93045044 C31.51653579 51.86574938 32.21398487 53.80366085 32.91015625 55.7421875 C33.31371338 56.8544873 33.71727051 57.96678711 34.13305664 59.11279297 C35 62 35 62 35 66 C33.11328125 65.76953125 33.11328125 65.76953125 31 65 C29.98046875 63.19921875 29.98046875 63.19921875 29.1875 60.6875 C28.86136719 59.70007813 28.53523438 58.71265625 28.19921875 57.6953125 C27.80347656 56.47585938 27.40773438 55.25640625 27 54 C26.14880643 51.55052961 25.28389885 49.10610629 24.41918945 46.66137695 C21.52184751 38.46955625 18.7481923 30.2445769 16 22 C15.67 36.52 15.34 51.04 15 66 C15.99 66 16.98 66 18 66 C18 66.66 18 67.32 18 68 C19.65 68 21.3 68 23 68 C23 69.98 23 71.96 23 74 C20.69 74 18.38 74 16 74 C16 78.95 16 83.9 16 89 C16.66 89.33 17.32 89.66 18 90 C17.01 90 16.02 90 15 90 C15 82.74 15 75.48 15 68 C14.34 68 13.68 68 13 68 C12.67 75.26 12.34 82.52 12 90 C11.01 89.67 10.02 89.34 9 89 C9.66 89 10.32 89 11 89 C11 84.05 11 79.1 11 74 C7.7 74 4.4 74 1 74 C1 72.35 1 70.7 1 69 C3.64 69 6.28 69 9 69 C9 48.21 9 27.42 9 6 C6.03 6 3.06 6 0 6 C0 4.02 0 2.04 0 0 Z " fill="#0A0A0A" transform="translate(272,224)"/>
<path d="M0 0 C8.37363432 7.09310853 14.73245444 15.81594578 15.69140625 27 C15.96819629 40.05475639 13.34283259 49.51413447 5.35546875 60.08203125 C4.35546875 61.08203125 4.35546875 61.08203125 1.79296875 61.14453125 C0.98859375 61.12390625 0.18421875 61.10328125 -0.64453125 61.08203125 C0.84666534 58.47243722 2.29545186 56.14979225 4.29296875 53.89453125 C10.93230935 44.84088498 11.6048719 34.95211205 10.35546875 24.08203125 C8.68614546 16.49599407 4.34658963 10.88631227 -0.64453125 5.08203125 C-0.15774902 6.23002197 0.3290332 7.3780127 0.83056641 8.56079102 C2.46707834 12.94316668 2.79318102 16.77869225 2.75390625 21.421875 C2.75677643 22.18826797 2.75964661 22.95466095 2.76260376 23.74427795 C2.76463101 25.35353338 2.75919565 26.96281421 2.74658203 28.57202148 C2.73053035 31.0101742 2.7464641 33.44666406 2.765625 35.88476562 C2.77812361 45.10131356 2.64695195 53.14480645 -2.64453125 61.08203125 C-3.96453125 61.08203125 -5.28453125 61.08203125 -6.64453125 61.08203125 C-6.37640625 60.46328125 -6.10828125 59.84453125 -5.83203125 59.20703125 C-2.44129498 50.28404106 -1.19310605 42.66231316 -1.33203125 33.08203125 C-1.32880859 31.97085938 -1.32558594 30.8596875 -1.32226562 29.71484375 C-1.40001441 15.93355478 -1.40001441 15.93355478 -7.64453125 4.08203125 C-12.82062214 0.29464767 -18.47553698 0.30975775 -24.64453125 1.08203125 C-28.30872791 2.48108816 -29.90998277 3.69841845 -31.75219727 7.16845703 C-34.85954762 14.91640449 -35.26217173 22.24124779 -35.16601562 30.46166992 C-35.14452179 32.64549291 -35.16593721 34.82604053 -35.19140625 37.00976562 C-35.20601275 45.04916065 -34.47295783 51.84697048 -30.64453125 59.08203125 C-30.14953125 60.07203125 -30.14953125 60.07203125 -29.64453125 61.08203125 C-39.49284444 61.85816802 -39.49284444 61.85816802 -43.51953125 59.14453125 C-50.94884816 48.43757452 -53.99211526 38.23376887 -52.64453125 25.08203125 C-50.10314113 13.95774275 -43.89751454 5.24672628 -34.85546875 -1.54296875 C-23.80310051 -8.41652638 -10.35941375 -7.51325281 0 0 Z " fill="#0E0E0E" transform="translate(185.64453125,228.91796875)"/>
<path d="M0 0 C10.23 0 20.46 0 31 0 C31 1.98 31 3.96 31 6 C28.36 6 25.72 6 23 6 C23.00666183 6.79878067 23.01332367 7.59756134 23.02018738 8.42054749 C23.08043021 15.96773064 23.12604106 23.51479633 23.15543652 31.06215763 C23.17105735 34.94185246 23.19222949 38.82134773 23.22631836 42.70092773 C23.25904056 46.44864792 23.27687994 50.19617678 23.28463173 53.94402885 C23.29015227 55.37010139 23.30093244 56.79616407 23.31719017 58.22215462 C23.48654991 73.69992177 23.48654991 73.69992177 18.125 80.3125 C13.1880663 84.23300618 8.0820748 84.56206206 1.9609375 84.43359375 C-1.93558072 83.86299544 -4.11565759 82.7245093 -6.8515625 79.921875 C-8.61431792 76.97195776 -8.66738077 74.42788469 -8.5390625 71.05078125 C-7.87951254 68.54162379 -7.0531248 67.56173711 -5 66 C-1.88188517 65.61023565 0.11019567 65.49577755 2.875 67.0625 C4.62409203 70.07482516 4.30401551 72.59502627 4 76 C3.34 76.99 2.68 77.98 2 79 C4.97 78.505 4.97 78.505 8 78 C8.33 54.24 8.66 30.48 9 6 C6.03 6 3.06 6 0 6 C0 4.02 0 2.04 0 0 Z " fill="#0C0C0C" transform="translate(29,224)"/>
<path d="M0 0 C2.64 0 5.28 0 8 0 C8.51046875 1.45792969 8.51046875 1.45792969 9.03125 2.9453125 C11.99172946 11.377847 15.00335398 19.79024198 18.0625 28.1875 C18.56994751 29.58645508 18.56994751 29.58645508 19.08764648 31.01367188 C20.58644025 35.1423559 22.09418521 39.26588795 23.65625 43.37109375 C23.89722412 44.01473877 24.13819824 44.65838379 24.38647461 45.3215332 C25.01209679 46.99053684 25.64817403 48.65561135 26.28515625 50.3203125 C27.037973 53.14234686 26.96295607 54.30601576 26 57 C25.65421232 58.99788438 25.31856451 60.99759451 25 63 C26.485 63.99 26.485 63.99 28 65 C28.11601562 63.99839844 28.23203125 62.99679687 28.3515625 61.96484375 C28.92022186 57.99719764 30.07222915 54.35632662 31.375 50.5625 C32.00535156 48.70818359 32.00535156 48.70818359 32.6484375 46.81640625 C33.54292907 44.25856053 34.47520647 41.71814521 35.43359375 39.18359375 C37.27164743 34.31937512 38.97806841 29.41060097 40.6875 24.5 C41.00783203 23.5821875 41.32816406 22.664375 41.65820312 21.71875 C42.43962479 19.4794521 43.22020686 17.23986541 44 15 C44.33 15 44.66 15 45 15 C45 31.5 45 48 45 65 C42.69 65 40.38 65 38 65 C37.67 71.93 37.34 78.86 37 86 C32.7181671 83.85908355 31.46562924 82.32199671 28.75 78.5 C28.04359375 77.5203125 27.3371875 76.540625 26.609375 75.53125 C25 73 25 73 25 71 C24.34 71 23.68 71 23 71 C23.495 78.92 23.495 78.92 24 87 C22.02 87 20.04 87 18 87 C18 86.34 18 85.68 18 85 C18.66 85 19.32 85 20 85 C19.67 78.4 19.34 71.8 19 65 C18.34 64.67 17.68 64.34 17 64 C17.33 63.01 17.66 62.02 18 61 C19.32 61.33 20.64 61.66 22 62 C16.19162781 44.43377429 16.19162781 44.43377429 10.2109375 26.92578125 C9.98342804 26.26989517 9.75591858 25.61400909 9.52151489 24.93824768 C8.41523074 21.75176033 7.30431053 18.56702646 6.18798828 15.3840332 C5.78563965 14.22863037 5.38329102 13.07322754 4.96875 11.8828125 C4.61232422 10.86590332 4.25589844 9.84899414 3.88867188 8.80126953 C3 6 3 6 2.50195312 3.19482422 C2.33630859 2.47053223 2.17066406 1.74624023 2 1 C1.34 0.67 0.68 0.34 0 0 Z " fill="#EFEFEF" transform="translate(285,228)"/>
<path d="M0 0 C6.85436837 4.43517953 10.93415397 12.25781557 13 20 C14.31290732 33.86153726 11.93046175 43.58362617 3.13671875 54.63671875 C2.76160156 55.08660156 2.38648438 55.53648437 2 56 C3.65 56.66 5.3 57.32 7 58 C6.34 59.32 5.68 60.64 5 62 C5 61.34 5 60.68 5 60 C1.96707046 61.14083176 1.96707046 61.14083176 -1 63 C-1.96906827 65.58414426 -1.96906827 65.58414426 -2 68 C0.97 68 3.94 68 7 68 C6.01 68.66 5.02 69.32 4 70 C5.0828125 71.0828125 5.0828125 71.0828125 6.1875 72.1875 C7.115625 73.115625 8.04375 74.04375 9 75 C10.3921875 76.3303125 10.3921875 76.3303125 11.8125 77.6875 C14 80 14 80 14 82 C11.16426872 82.05787207 9.58738909 82.0389516 7 81 C4.24700325 78.27889124 1.99977936 75.31270441 0 72 C0 71.34 0 70.68 0 70 C-0.66 70 -1.32 70 -2 70 C-2 73.3 -2 76.6 -2 80 C-1.34 80 -0.68 80 0 80 C0 80.66 0 81.32 0 82 C-3.3 82 -6.6 82 -10 82 C-10 81.34 -10 80.68 -10 80 C-9.34 80 -8.68 80 -8 80 C-8 75.38 -8 70.76 -8 66 C-9.98 66.495 -9.98 66.495 -12 67 C-18.31841226 67.31592061 -24.22870203 66.88564899 -30 64 C-29.67 69.61 -29.34 75.22 -29 81 C-29.99 81 -30.98 81 -32 81 C-32.33 74.73 -32.66 68.46 -33 62 C-33.33 68.27 -33.66 74.54 -34 81 C-34.99 80.67 -35.98 80.34 -37 80 C-36.505 79.505 -36.505 79.505 -36 79 C-35.84379445 77.58672053 -35.74943827 76.1664541 -35.68359375 74.74609375 C-35.64169922 73.89208984 -35.59980469 73.03808594 -35.55664062 72.15820312 C-35.51732422 71.26037109 -35.47800781 70.36253906 -35.4375 69.4375 C-35.39431641 68.53580078 -35.35113281 67.63410156 -35.30664062 66.70507812 C-35.20021858 64.47021515 -35.09820012 62.23523692 -35 60 C-37.93443402 60.26656572 -37.93443402 60.26656572 -41 61 C-41.66 61.99 -42.32 62.98 -43 64 C-43.66 64 -44.32 64 -45 64 C-44.67 61.69 -44.34 59.38 -44 57 C-36.50824535 55.9226459 -29.51094816 56.1611484 -22 57 C-21.67 58.32 -21.34 59.64 -21 61 C-15.555 60.505 -15.555 60.505 -10 60 C-10 59.01 -10 58.02 -10 57 C-5.545 56.505 -5.545 56.505 -1 56 C-0.525625 54.9275 -0.05125 53.855 0.4375 52.75 C0.70433594 52.14671875 0.97117188 51.5434375 1.24609375 50.921875 C3.04917857 46.32541007 3.17493396 41.95004316 3.203125 37.05078125 C3.21167511 35.8927021 3.21167511 35.8927021 3.22039795 34.71122742 C3.22982955 33.07808799 3.23637461 31.44492968 3.24023438 29.81176758 C3.24989897 27.33835696 3.2809218 24.8657925 3.3125 22.39257812 C3.36495485 14.3575316 3.31029231 7.48300289 0 0 Z " fill="#F99E66" transform="translate(184,233)"/>
<path d="M0 0 C0.33 0 0.66 0 1 0 C1 16.17 1 32.34 1 49 C-0.98 49 -2.96 49 -5 49 C-5 48.34 -5 47.68 -5 47 C-6.98 47 -8.96 47 -11 47 C-11 47.66 -11 48.32 -11 49 C-10.34 49 -9.68 49 -9 49 C-9 53.29 -9 57.58 -9 62 C-15.38709677 55.61290323 -15.38709677 55.61290323 -17 52 C-16.560012 47.82321255 -15.31000781 43.97818547 -14 40 C-13.505 38.43378906 -13.505 38.43378906 -13 36.8359375 C-11.40621489 31.91761628 -9.65365683 27.07665133 -7.82958984 22.23925781 C-6.26424543 18.01402562 -4.79380111 13.75526164 -3.3125 9.5 C-2.99216797 8.5821875 -2.67183594 7.664375 -2.34179688 6.71875 C-1.56037521 4.4794521 -0.77979314 2.23986541 0 0 Z " fill="#F4F4F4" transform="translate(329,243)"/>
<path d="M0 0 C3.12831381 -0.485428 4.99839709 -0.76946561 8 0 C9.44970703 1.546875 9.44970703 1.546875 10.7578125 3.6875 C11.26812012 4.50726318 11.77842773 5.32702637 12.30419922 6.17163086 C12.86381348 7.10499268 13.42342773 8.03835449 14 9 C14.6305127 10.02552979 15.26102539 11.05105957 15.91064453 12.10766602 C18.42023325 16.20382116 20.90002871 20.31737976 23.37545776 24.43423462 C28.71774799 33.33732209 28.71774799 33.33732209 34.33203125 42.0703125 C34.80286133 42.78372803 35.27369141 43.49714355 35.75878906 44.23217773 C36.59104918 45.48041205 37.43924323 46.71826473 38.30761719 47.94165039 C41.41352198 52.62870556 41.43275104 56.59404651 41 62 C39.68 62 38.36 62 37 62 C35.65063477 60.49731445 35.65063477 60.49731445 34.44140625 58.36328125 C33.97992188 57.56921875 33.5184375 56.77515625 33.04296875 55.95703125 C32.31013672 54.64798828 32.31013672 54.64798828 31.5625 53.3125 C30.49253105 51.46389028 29.42086155 49.61626399 28.34765625 47.76953125 C27.52031982 46.33407959 27.52031982 46.33407959 26.67626953 44.86962891 C24.04031984 40.35711032 21.27034826 35.93080541 18.5 31.5 C14.01121898 24.28060045 9.57132382 17.03364986 5.1875 9.75 C4.66542969 8.88568359 4.14335937 8.02136719 3.60546875 7.13085938 C3.13109375 6.34001953 2.65671875 5.54917969 2.16796875 4.734375 C1.53797974 3.68588379 1.53797974 3.68588379 0.89526367 2.61621094 C0 1 0 1 0 0 Z " fill="#F0F0F0" transform="translate(217,228)"/>
<path d="M0 0 C13 0 13 0 16.27734375 2 C18.42263251 5.73601308 18.70573479 8.80360766 18.5625 13 C18.57345703 13.69867188 18.58441406 14.39734375 18.59570312 15.1171875 C18.52646403 20.01008361 17.46641025 22.57894465 14 26 C9.81537205 28.09231398 4.67855628 27 0 27 C0 18.09 0 9.18 0 0 Z " fill="#F5F5F5" transform="translate(438,230)"/>
<path d="M0 0 C1.98 0 3.96 0 6 0 C6.11600884 8.89274825 6.20477287 17.78523481 6.25906086 26.67857552 C6.28512069 30.80845044 6.32045125 34.93780649 6.37719727 39.06738281 C6.43164817 43.05503287 6.46144772 47.04218485 6.47438622 51.03017807 C6.48360284 52.54923211 6.50160138 54.06825982 6.52865028 55.58710098 C6.56511834 57.72028073 6.56993851 59.85142043 6.56762695 61.98486328 C6.57873001 63.1973172 6.58983307 64.40977112 6.60127258 65.65896606 C5.78976664 70.16818365 4.24011219 71.7940594 1 75 C-0.485 75.495 -0.485 75.495 -2 76 C-1.83923477 75.4856842 -1.67846954 74.97136841 -1.51283264 74.44146729 C-0.84138577 71.24487755 -0.83466078 68.20370907 -0.79467773 64.93652344 C-0.78477814 64.23368225 -0.77487854 63.53084106 -0.76467896 62.80670166 C-0.73317216 60.49096 -0.70834951 58.17519785 -0.68359375 55.859375 C-0.66301487 54.25082882 -0.64201815 52.64228794 -0.62062073 51.03375244 C-0.56549652 46.8055043 -0.51604479 42.57720814 -0.46777344 38.34887695 C-0.41748784 34.03202046 -0.36183865 29.71523348 -0.30664062 25.3984375 C-0.19917714 16.93235049 -0.09770608 8.46620522 0 0 Z " fill="#F8F8F8" transform="translate(42,228)"/>
<path d="M0 0 C1.98 0 3.96 0 6 0 C6 21.78 6 43.56 6 66 C4.02 66 2.04 66 0 66 C0 44.22 0 22.44 0 0 Z " fill="#FAFAFA" transform="translate(428,228)"/>
<path d="M0 0 C1.98 0 3.96 0 6 0 C6 21.78 6 43.56 6 66 C4.02 66 2.04 66 0 66 C0 44.22 0 22.44 0 0 Z " fill="#EFEFEF" transform="translate(368,228)"/>
<path d="M0 0 C2.31 0 4.62 0 7 0 C7.02312659 8.45767334 7.0409167 16.91533356 7.05181217 25.37303066 C7.05704031 29.29988658 7.06413669 33.22672094 7.07543945 37.15356445 C7.0862708 40.94014257 7.09227736 44.7266999 7.09487724 48.51329231 C7.09673105 49.96104319 7.10035081 51.40879288 7.10573006 52.85653496 C7.11294367 54.87757135 7.11340808 56.89862848 7.11352539 58.91967773 C7.115746 60.07217514 7.11796661 61.22467255 7.12025452 62.41209412 C7 65 7 65 6 66 C4.35 66 2.7 66 1 66 C0.67 44.22 0.34 22.44 0 0 Z " fill="#EFEFEF" transform="translate(333,228)"/>
<path d="M0 0 C1.98 0 3.96 0 6 0 C6 21.78 6 43.56 6 66 C4.02 66 2.04 66 0 66 C0 44.22 0 22.44 0 0 Z " fill="#EFEFEF" transform="translate(112,228)"/>
<path d="M0 0 C1.98 0 3.96 0 6 0 C6 21.78 6 43.56 6 66 C4.02 66 2.04 66 0 66 C0 44.22 0 22.44 0 0 Z " fill="#FAFAFA" transform="translate(74,228)"/>
<path d="M0 0 C1.65 0.33 3.3 0.66 5 1 C5.66 3.31 6.32 5.62 7 8 C9.31 8 11.62 8 14 8 C14 5.36 14 2.72 14 0 C17.64314315 1.91744376 19.49108381 3.15601894 21 7 C21.52496844 10.39847993 21.54514176 13.60250035 21 17 C18.46485825 20.38018899 15.92720497 22.50076297 12 24 C9.37573495 24.13958857 6.86707253 24.18931369 4.25 24.125 C3.55261719 24.11597656 2.85523438 24.10695313 2.13671875 24.09765625 C0.42433042 24.07419888 -1.28788004 24.03833104 -3 24 C-2.01 23.67 -1.02 23.34 0 23 C0 15.41 0 7.82 0 0 Z " fill="#FDB183" transform="translate(248,291)"/>
<path d="M0 0 C6.85436837 4.43517953 10.93415397 12.25781557 13 20 C14.07761628 31.37735928 13.41210398 40.78808626 6.33203125 50.22265625 C4.95230701 51.87111537 3.48511226 53.44581275 2 55 C0.5608711 52.12174221 1.70343646 50.19999693 2.49960327 47.2272644 C3.29106872 43.70445394 3.30534846 40.25783279 3.30078125 36.66015625 C3.30506638 35.89376328 3.3093515 35.1273703 3.31376648 34.3377533 C3.31946933 32.72851543 3.32004018 31.11925181 3.31567383 29.51000977 C3.31251229 27.0719739 3.33602814 24.63515221 3.36132812 22.19726562 C3.39187636 14.31430781 3.22371231 7.34053752 0 0 Z " fill="#EAEAEA" transform="translate(184,233)"/>
<path d="M0 0 C0 2.7242216 -0.35351197 4.67212915 -0.98046875 7.29296875 C-2.34663783 13.95470394 -2.33010644 20.53402247 -2.3125 27.3125 C-2.32861328 28.54162109 -2.34472656 29.77074219 -2.36132812 31.03710938 C-2.365744 39.40519646 -1.23480068 46.93932845 1 55 C-6.04954163 49.91777232 -9.66305321 43.32859009 -12 35 C-13.1850111 23.99810747 -11.8478888 14.46051296 -5.109375 5.48046875 C-3.4676215 3.57510036 -1.79579692 1.75957047 0 0 Z " fill="#EEEEEE" transform="translate(149,234)"/>
<path d="M0 0 C0.33 0 0.66 0 1 0 C1 1.65 1 3.3 1 5 C3.97 5 6.94 5 10 5 C10 26.12 10 47.24 10 69 C8.02 69 6.04 69 4 69 C4 70.65 4 72.3 4 74 C2.68 74 1.36 74 0 74 C-0.33 72.68 -0.66 71.36 -1 70 C-1.33 71.32 -1.66 72.64 -2 74 C-5.3 74 -8.6 74 -12 74 C-12 73.01 -12 72.02 -12 71 C-12.99 71.99 -13.98 72.98 -15 74 C-15.66 73.67 -16.32 73.34 -17 73 C-16.75885216 72.20864655 -16.75885216 72.20864655 -16.51283264 71.40130615 C-15.87676478 68.42295895 -15.83600802 65.62573384 -15.79467773 62.57910156 C-15.7647599 60.62753143 -15.7647599 60.62753143 -15.73423767 58.63653564 C-15.71725582 57.2212333 -15.70037693 55.80592972 -15.68359375 54.390625 C-15.66301245 52.93902001 -15.64201567 51.48742086 -15.62062073 50.03582764 C-15.56552149 46.22187028 -15.51605885 42.40785993 -15.46777344 38.59381104 C-15.41746951 34.69921166 -15.36182993 30.80468891 -15.30664062 26.91015625 C-15.19920772 19.27350245 -15.09772999 11.63678479 -15 4 C-14.67 4 -14.34 4 -14 4 C-13.67 24.79 -13.34 45.58 -13 67 C-12.01 66.505 -12.01 66.505 -11 66 C-8.7927077 65.92907158 -6.58332548 65.91584975 -4.375 65.9375 C-3.18648438 65.94652344 -1.99796875 65.95554687 -0.7734375 65.96484375 C0.14179688 65.97644531 1.05703125 65.98804688 2 66 C2 66.66 2 67.32 2 68 C4.31 68 6.62 68 9 68 C9 47.54 9 27.08 9 6 C6.03 6 3.06 6 0 6 C0 4.02 0 2.04 0 0 Z " fill="#9A7F6F" transform="translate(355,224)"/>
<path d="M0 0 C1.19882813 0.07250977 1.19882813 0.07250977 2.421875 0.14648438 C3.246875 0.20255859 4.071875 0.25863281 4.921875 0.31640625 C5.76234375 0.36861328 6.6028125 0.42082031 7.46875 0.47460938 C9.5368102 0.60386314 11.6043972 0.74064899 13.671875 0.87890625 C14.001875 2.19890625 14.331875 3.51890625 14.671875 4.87890625 C18.961875 4.21890625 23.251875 3.55890625 27.671875 2.87890625 C27.671875 4.85890625 27.671875 6.83890625 27.671875 8.87890625 C23.32111142 11.77941531 18.37977513 11.38723136 13.4453125 10.4609375 C10.73687413 9.80598786 8.17108736 9.12851243 5.671875 7.87890625 C6.001875 13.48890625 6.331875 19.09890625 6.671875 24.87890625 C5.681875 24.87890625 4.691875 24.87890625 3.671875 24.87890625 C3.341875 18.60890625 3.011875 12.33890625 2.671875 5.87890625 C2.341875 12.14890625 2.011875 18.41890625 1.671875 24.87890625 C0.681875 24.54890625 -0.308125 24.21890625 -1.328125 23.87890625 C-0.998125 23.54890625 -0.668125 23.21890625 -0.328125 22.87890625 C-0.17191945 21.46562678 -0.07756327 20.04536035 -0.01171875 18.625 C0.03017578 17.77099609 0.07207031 16.91699219 0.11523438 16.03710938 C0.15455078 15.13927734 0.19386719 14.24144531 0.234375 13.31640625 C0.27755859 12.41470703 0.32074219 11.51300781 0.36523438 10.58398438 C0.47165642 8.3491214 0.57367488 6.11414317 0.671875 3.87890625 C-2.26255902 4.14547197 -2.26255902 4.14547197 -5.328125 4.87890625 C-6.318125 6.36390625 -6.318125 6.36390625 -7.328125 7.87890625 C-7.988125 7.87890625 -8.648125 7.87890625 -9.328125 7.87890625 C-8.998125 5.56890625 -8.668125 3.25890625 -8.328125 0.87890625 C-5.42143038 0.02585457 -3.01763627 -0.1939909 0 0 Z " fill="#F7995F" transform="translate(148.328125,289.12109375)"/>
<path d="M0 0 C2.125 -0.4375 2.125 -0.4375 5 0 C9.41125756 3.880059 12.67085368 9.20211266 16 14 C16.33 10.37 16.66 6.74 17 3 C16.34 3 15.68 3 15 3 C15 2.34 15 1.68 15 1 C16.98 1 18.96 1 21 1 C21 1.66 21 2.32 21 3 C22.98 3 24.96 3 27 3 C27 3.33 27 3.66 27 4 C24.69 4 22.38 4 20 4 C19.67 10.93 19.34 17.86 19 25 C14.7181671 22.85908355 13.46562924 21.32199671 10.75 17.5 C10.04359375 16.5203125 9.3371875 15.540625 8.609375 14.53125 C7 12 7 12 7 10 C6.34 10 5.68 10 5 10 C5.33 15.28 5.66 20.56 6 26 C4.02 26 2.04 26 0 26 C0 25.34 0 24.68 0 24 C0.66 24 1.32 24 2 24 C1.67 17.4 1.34 10.8 1 4 C0.34 3.67 -0.32 3.34 -1 3 C-0.67 2.01 -0.34 1.02 0 0 Z " fill="#FEA773" transform="translate(303,289)"/>
<path d="M0 0 C2.31 0 4.62 0 7 0 C7 0.66 7 1.32 7 2 C8.65 2 10.3 2 12 2 C12 5.33333333 12 8.66666667 12 12 C13.00032817 14.59534439 13.00032817 14.59534439 14.375 17.1875 C14.81585938 18.06792969 15.25671875 18.94835937 15.7109375 19.85546875 C16.8190011 22.13291625 16.8190011 22.13291625 19 23 C19 23.66 19 24.32 19 25 C15.37 25 11.74 25 8 25 C8 24.34 8 23.68 8 23 C8.66 23 9.32 23 10 23 C9.67 21.02 9.34 19.04 9 17 C6.03 17 3.06 17 0 17 C-0.66 18.98 -1.32 20.96 -2 23 C-1.34 23 -0.68 23 0 23 C0 23.66 0 24.32 0 25 C-1.98 25 -3.96 25 -6 25 C-6 24.34 -6 23.68 -6 23 C-5.34 22.67 -4.68 22.34 -4 22 C-2.86970802 19.57250764 -1.84833183 17.17671466 -0.875 14.6875 C-0.59785156 14.01009766 -0.32070312 13.33269531 -0.03515625 12.63476562 C1.34140424 9.16624004 2 6.78176393 2 3 C1.34 2.67 0.68 2.34 0 2 C0 1.34 0 0.68 0 0 Z " fill="#FDC29E" transform="translate(215,290)"/>
<path d="M0 0 C0.33 0.66 0.66 1.32 1 2 C0.67 2.66 0.34 3.32 0 4 C-0.27671956 8.21997329 -0.35934095 11.04175746 1.125 15 C2.91035519 17.34484335 2.91035519 17.34484335 6.1875 17.3125 C7.115625 17.209375 8.04375 17.10625 9 17 C9.33 14.36 9.66 11.72 10 9 C9.34 9 8.68 9 8 9 C8 8.34 8 7.68 8 7 C11.3 7 14.6 7 18 7 C18 7.99 18 8.98 18 10 C17.34 10 16.68 10 16 10 C16 13.63 16 17.26 16 21 C14.68 20.67 13.36 20.34 12 20 C11.34 20.33 10.68 20.66 10 21 C5.20062265 21.51816286 1.26590874 21.71207367 -3 19.3125 C-6.11846643 15.70677319 -6.91647058 13.19029424 -7.25 8.4375 C-7.02113861 5.29065585 -6.67216798 3.61276248 -5 1 C-4.34 1.99 -3.68 2.98 -3 4 C-2.67 3.01 -2.34 2.02 -2 1 C-1.34 0.67 -0.68 0.34 0 0 Z " fill="#FCA671" transform="translate(343,294)"/>
<path d="M0 0 C0.66 0.33 1.32 0.66 2 1 C1.67 16.51 1.34 32.02 1 48 C1.99 48 2.98 48 4 48 C4 48.66 4 49.32 4 50 C5.65 50 7.3 50 9 50 C9 51.98 9 53.96 9 56 C6.69 56 4.38 56 2 56 C2 60.95 2 65.9 2 71 C2.66 71.33 3.32 71.66 4 72 C3.01 72 2.02 72 1 72 C1 64.74 1 57.48 1 50 C0.34 50 -0.32 50 -1 50 C-1.33 57.26 -1.66 64.52 -2 72 C-2.99 71.67 -3.98 71.34 -5 71 C-4.34 71 -3.68 71 -3 71 C-3 66.05 -3 61.1 -3 56 C-6.3 56 -9.6 56 -13 56 C-13 54.35 -13 52.7 -13 51 C-10.36 51 -7.72 51 -5 51 C-5 50.01 -5 49.02 -5 48 C-3.35 48 -1.7 48 0 48 C0 32.16 0 16.32 0 0 Z " fill="#AE8A74" transform="translate(286,242)"/>
<path d="M0 0 C5.07186402 1.77855634 6.86343793 3.73079052 10 8 C10.88173895 10.64521684 11.16631815 12.39597991 11.28125 15.125 C11.31863281 15.91390625 11.35601562 16.7028125 11.39453125 17.515625 C11.46484375 19.171875 11.53515625 20.828125 11.60546875 22.484375 C11.64285156 23.27328125 11.68023437 24.0621875 11.71875 24.875 C11.74904297 25.59429687 11.77933594 26.31359375 11.81054688 27.0546875 C11.94807506 29.21552834 11.94807506 29.21552834 13 32 C10.75 32.3125 10.75 32.3125 8 32 C4.24166079 28.28288572 3.52707941 25.70754951 3.4375 20.5 C3.13692212 13.39133317 1.8129326 6.86405928 0 0 Z " fill="#EDEDED" transform="translate(455,263)"/>
<path d="M0 0 C8.05718867 -0.48102619 8.05718867 -0.48102619 12.0625 1.5625 C14 4 14 4 14.625 7.5 C14 11 14 11 12.0625 13.4375 C7.79922201 15.61264183 4.75340242 15.28378522 0 15 C0 10.05 0 5.1 0 0 Z " fill="#F3F3F3" transform="translate(289,316)"/>
<path d="M0 0 C2.4375 1.5625 2.4375 1.5625 4 4 C4.56288002 7.94016013 4.60396028 10.05782196 2.4375 13.4375 C-0.94217804 15.60396028 -3.05983987 15.56288002 -7 15 C-9.4375 13.4375 -9.4375 13.4375 -11 11 C-11.56288002 7.05983987 -11.60396028 4.94217804 -9.4375 1.5625 C-6.05782196 -0.60396028 -3.94016013 -0.56288002 0 0 Z " fill="#F4F4F4" transform="translate(239,316)"/>
<path d="M0 0 C8.75 -0.125 8.75 -0.125 11 1 C11.4140625 3.94140625 11.4140625 3.94140625 11.625 7.5625 C11.69976562 8.76003906 11.77453125 9.95757812 11.8515625 11.19140625 C11.90054688 12.11824219 11.94953125 13.04507812 12 14 C9.47524538 15.26237731 7.68799534 15.09856404 4.875 15.0625 C3.26625 15.041875 1.6575 15.02125 0 15 C0 10.05 0 5.1 0 0 Z " fill="#393939" transform="translate(198,316)"/>
<path d="M0 0 C0.99 0.99 1.98 1.98 3 3 C3 3.66 3 4.32 3 5 C5.31 5 7.62 5 10 5 C10.33 4.01 10.66 3.02 11 2 C12.08358521 7.87485958 12.5368611 11.82102482 9 17 C6 19 6 19 0 19 C0 12.73 0 6.46 0 0 Z " fill="#F9F4F1" transform="translate(252,294)"/>
<path d="M0 0 C2.475 0.495 2.475 0.495 5 1 C5.33 2.32 5.66 3.64 6 5 C6.66 5 7.32 5 8 5 C8 4.01 8 3.02 8 2 C12.29 1.34 16.58 0.68 21 0 C21 1.98 21 3.96 21 6 C16.63499554 8.91000298 11.68764944 8.49668133 6.73828125 7.58203125 C1.27830189 6.27830189 1.27830189 6.27830189 0 5 C-0.04063832 3.33382885 -0.042721 1.66611905 0 0 Z " fill="#0B0B0B" transform="translate(155,292)"/>
<path d="M0 0 C1.06605469 0.09023438 2.13210938 0.18046875 3.23046875 0.2734375 C5.8125 0.625 5.8125 0.625 6.8125 1.625 C6.95365161 4.29558851 6.85497107 6.94932238 6.8125 9.625 C3.4375 9.8125 3.4375 9.8125 -0.1875 9.625 C-2.1875 6.625 -2.1875 6.625 -2.1875 2.625 C-3.8375 2.295 -5.4875 1.965 -7.1875 1.625 C-7.1875 9.215 -7.1875 16.805 -7.1875 24.625 C-8.1775 24.295 -9.1675 23.965 -10.1875 23.625 C-9.5275 23.625 -8.8675 23.625 -8.1875 23.625 C-8.1875 16.695 -8.1875 9.765 -8.1875 2.625 C-8.8475 2.625 -9.5075 2.625 -10.1875 2.625 C-10.1875 1.965 -10.1875 1.305 -10.1875 0.625 C-6.66659316 -0.51737655 -3.66441824 -0.33028861 0 0 Z " fill="#F09156" transform="translate(255.1875,289.375)"/>
<path d="M0 0 C3.85036851 1.51264477 5.88348422 3.44727709 8 7 C8.88239529 11.70316689 8.45737864 15.74291263 6.25 20 C4 23 4 23 1.75 23.9375 C1.1725 23.958125 0.595 23.97875 0 24 C0.495 22.515 0.495 22.515 1 21 C1.09679233 18.36383237 1.13924509 15.76034093 1.125 13.125 C1.12886719 12.41730469 1.13273437 11.70960938 1.13671875 10.98046875 C1.12966857 7.19451956 0.90907953 3.67960763 0 0 Z " fill="#E9E9E9" transform="translate(458,231)"/>
<path d="M0 0 C0.8125 3.25 0.8125 3.25 1 7 C-1.1875 9.5 -1.1875 9.5 -4 11 C-6.3125 10.75 -6.3125 10.75 -8 10 C-7.67 9.67 -7.34 9.34 -7 9 C-8.65 8.67 -10.3 8.34 -12 8 C-12.25 5.6875 -12.25 5.6875 -12 3 C-8.34879354 -0.65120646 -4.8700252 -1.56536524 0 0 Z " fill="#FEB181" transform="translate(194,293)"/>
<path d="M0 0 C4.09953268 0.69478987 5.52612296 2.52093023 7.95507812 5.86914062 C8.40302734 6.51044922 8.85097656 7.15175781 9.3125 7.8125 C9.77978516 8.44220703 10.24707031 9.07191406 10.72851562 9.72070312 C12.05078125 11.58203125 12.05078125 11.58203125 14 15 C13.62182617 17.21362305 13.62182617 17.21362305 13 19 C9.74483572 15.83525695 6.67991207 12.67247209 4 9 C4 8.34 4 7.68 4 7 C3.34 7 2.68 7 2 7 C2 11.62 2 16.24 2 21 C1.34 20.67 0.68 20.34 0 20 C0 15.38 0 10.76 0 6 C0.99 5.67 1.98 5.34 3 5 C2.01 3.35 1.02 1.7 0 0 Z " fill="#FDC5A2" transform="translate(306,292)"/>
<path d="M0 0 C0.66 0 1.32 0 2 0 C2 7.26 2 14.52 2 22 C3.32 21.67 4.64 21.34 6 21 C6 21.66 6 22.32 6 23 C2.7 23 -0.6 23 -4 23 C-4 22.34 -4 21.68 -4 21 C-3.34 21 -2.68 21 -2 21 C-2.33 16.05 -2.66 11.1 -3 6 C-2.01 5.67 -1.02 5.34 0 5 C0 3.35 0 1.7 0 0 Z " fill="#FAC09C" transform="translate(178,292)"/>
<path d="M0 0 C2.97 0 5.94 0 9 0 C8.01 0.66 7.02 1.32 6 2 C6.721875 2.721875 7.44375 3.44375 8.1875 4.1875 C9.115625 5.115625 10.04375 6.04375 11 7 C11.928125 7.886875 12.85625 8.77375 13.8125 9.6875 C16 12 16 12 16 14 C13.16426872 14.05787207 11.58738909 14.0389516 9 13 C6.24700325 10.27889124 3.99977936 7.31270441 2 4 C2 3.34 2 2.68 2 2 C1.34 2 0.68 2 0 2 C0 1.34 0 0.68 0 0 Z " fill="#FEA269" transform="translate(182,301)"/>
<path d="M0 0 C3.63388694 1.91257207 5.52242493 3.14604843 7 7 C7.23046875 9.5078125 7.23046875 9.5078125 7.1875 12.125 C7.18105469 12.99382812 7.17460937 13.86265625 7.16796875 14.7578125 C7 17 7 17 6 19 C3.4375 19.625 3.4375 19.625 1 20 C1.165 19.484375 1.33 18.96875 1.5 18.4375 C2.53519243 13.39093692 2.41026733 9.51925124 0 5 C-0.125 2.25 -0.125 2.25 0 0 Z " fill="#FEA268" transform="translate(262,291)"/>
<path d="M0 0 C8.05718867 -0.48102619 8.05718867 -0.48102619 12.0625 1.5625 C14 4 14 4 14.625 7.5 C14 11 14 11 12.0625 13.4375 C7.79922201 15.61264183 4.75340242 15.28378522 0 15 C0 10.05 0 5.1 0 0 Z M2 2 C2 5.96 2 9.92 2 14 C7.52082046 14.40836606 7.52082046 14.40836606 10.375 12.9375 C12.33953894 10.96170147 12.33953894 10.96170147 12.375 7.4375 C12.35639408 3.93889246 12.35639408 3.93889246 10 2 C7.31160615 1.73008094 4.70858064 1.91262643 2 2 Z " fill="#343434" transform="translate(289,316)"/>
<path d="M0 0 C0.33 0 0.66 0 1 0 C1.17695806 8.68370463 1.34291385 17.36752913 1.49477577 26.05170918 C1.56563606 30.08399787 1.6403032 34.11614154 1.72363281 38.14819336 C1.80389139 42.0383955 1.87419913 45.92866124 1.93757248 49.81917381 C1.96352213 51.30441109 1.99307404 52.78958988 2.02626419 54.274683 C2.0720951 56.35276059 2.10518266 58.4306762 2.13525391 60.5090332 C2.15746002 61.69261917 2.17966614 62.87620514 2.20254517 64.09565735 C2 67 2 67 0 70 C-0.66 69.67 -1.32 69.34 -2 69 C-1.75885216 68.20864655 -1.75885216 68.20864655 -1.51283264 67.40130615 C-0.87676478 64.42295895 -0.83600802 61.62573384 -0.79467773 58.57910156 C-0.7647599 56.62753143 -0.7647599 56.62753143 -0.73423767 54.63653564 C-0.71725582 53.2212333 -0.70037693 51.80592972 -0.68359375 50.390625 C-0.66301245 48.93902001 -0.64201567 47.48742086 -0.62062073 46.03582764 C-0.56552149 42.22187028 -0.51605885 38.40785993 -0.46777344 34.59381104 C-0.41746951 30.69921166 -0.36182993 26.80468891 -0.30664062 22.91015625 C-0.19920772 15.27350245 -0.09772999 7.63678479 0 0 Z " fill="#7F7873" transform="translate(340,228)"/>
<path d="M0 0 C0.33 0.66 0.66 1.32 1 2 C3.02463255 2.65213292 3.02463255 2.65213292 5 3 C4.67 4.65 4.34 6.3 4 8 C-0.29 8 -4.58 8 -9 8 C-9 6.35 -9 4.7 -9 3 C-6.03 3 -3.06 3 0 3 C0 2.01 0 1.02 0 0 Z " fill="#000000" transform="translate(213,290)"/>
<path d="M0 0 C2.4375 1.5625 2.4375 1.5625 4 4 C4.56288002 7.94016013 4.60396028 10.05782196 2.4375 13.4375 C-0.94217804 15.60396028 -3.05983987 15.56288002 -7 15 C-9.4375 13.4375 -9.4375 13.4375 -11 11 C-11.56288002 7.05983987 -11.60396028 4.94217804 -9.4375 1.5625 C-6.05782196 -0.60396028 -3.94016013 -0.56288002 0 0 Z M-8.9375 3.1875 C-10.38718434 5.66049093 -10.42317323 7.17884512 -10 10 C-9.04451019 11.95625978 -9.04451019 11.95625978 -7 13 C-3.45800359 13.41673207 -3.45800359 13.41673207 0 13 C2.37994368 11.05667668 2.37994368 11.05667668 2.25 7.5 C2.37994368 3.94332332 2.37994368 3.94332332 0 2 C-4.68316534 1.52100162 -4.68316534 1.52100162 -8.9375 3.1875 Z " fill="#383838" transform="translate(239,316)"/>
<path d="M0 0 C2.31 0 4.62 0 7 0 C7 0.66 7 1.32 7 2 C8.65 2 10.3 2 12 2 C12 12 12 12 11 15 C10.15973604 13.23244474 9.32801278 11.46082737 8.5 9.6875 C8.0359375 8.70136719 7.571875 7.71523438 7.09375 6.69921875 C6 4 6 4 6 1 C5.01 1.495 5.01 1.495 4 2 C4.99 3.98 5.98 5.96 7 8 C6.01 8.495 6.01 8.495 5 9 C4.01 8.34 3.02 7.68 2 7 C2 5.68 2 4.36 2 3 C1.34 2.67 0.68 2.34 0 2 C0 1.34 0 0.68 0 0 Z " fill="#9B6746" transform="translate(215,290)"/>
<path d="M0 0 C0.66 0 1.32 0 2 0 C2 7.26 2 14.52 2 22 C2.99 22.33 3.98 22.66 5 23 C2.03 23 -0.94 23 -4 23 C-3.01 22.67 -2.02 22.34 -1 22 C-1.01160156 20.91460937 -1.02320313 19.82921875 -1.03515625 18.7109375 C-1.04454138 17.26562673 -1.05364081 15.82031409 -1.0625 14.375 C-1.07506836 13.30572266 -1.07506836 13.30572266 -1.08789062 12.21484375 C-1.10710296 8.02655562 -0.8267327 4.1271538 0 0 Z " fill="#FBC09B" transform="translate(285,292)"/>
<path d="M0 0 C2.25 -0.3125 2.25 -0.3125 5 0 C7.3125 2.5 7.3125 2.5 9 5 C7.68 5 6.36 5 5 5 C5.66 6.32 6.32 7.64 7 9 C5.68 9 4.36 9 3 9 C3.11341637 11.31309705 3.24103807 13.62550185 3.375 15.9375 C3.44460938 17.22527344 3.51421875 18.51304687 3.5859375 19.83984375 C3.72257812 20.88269531 3.85921875 21.92554688 4 23 C4.66 23.33 5.32 23.66 6 24 C6 24.66 6 25.32 6 26 C4.02 26 2.04 26 0 26 C0 25.34 0 24.68 0 24 C0.66 24 1.32 24 2 24 C1.67 17.4 1.34 10.8 1 4 C0.34 3.67 -0.32 3.34 -1 3 C-0.67 2.01 -0.34 1.02 0 0 Z " fill="#D3804D" transform="translate(303,289)"/>
<path d="M0 0 C0.66 0.33 1.32 0.66 2 1 C1.34 2.65 0.68 4.3 0 6 C2.31 6 4.62 6 7 6 C7.33 7.65 7.66 9.3 8 11 C7.67 10.34 7.34 9.68 7 9 C4.03 9 1.06 9 -2 9 C-2.66 10.98 -3.32 12.96 -4 15 C-3.34 15 -2.68 15 -2 15 C-2 15.66 -2 16.32 -2 17 C-3.98 17 -5.96 17 -8 17 C-8 16.34 -8 15.68 -8 15 C-7.34 14.67 -6.68 14.34 -6 14 C-5.07737791 11.86158619 -4.2343601 9.6883919 -3.4375 7.5 C-1.08919383 1.08919383 -1.08919383 1.08919383 0 0 Z " fill="#FE9F65" transform="translate(217,298)"/>
<path d="M0 0 C0 1.98 0 3.96 0 6 C-3.3 6 -6.6 6 -10 6 C-10 4.35 -10 2.7 -10 1 C-2.25 0 -2.25 0 0 0 Z " fill="#000000" transform="translate(283,292)"/>
<path d="M0 0 C4.14011853 1.52923297 5.83477979 4.15400546 8.25 7.75 C8.95640625 8.77609375 9.6628125 9.8021875 10.390625 10.859375 C12.12664066 14.24713372 12.3365796 16.2527471 12 20 C8.63279613 18.60667426 7.0140476 17.0210714 5 14 C5.33 13.34 5.66 12.68 6 12 C6.99 13.32 7.98 14.64 9 16 C8.40141651 11.99994208 6.34340058 9.49066496 3.9375 6.3125 C0 1.08787346 0 1.08787346 0 0 Z " fill="#FEA167" transform="translate(310,294)"/>
<path d="M0 0 C4.455 0.99 4.455 0.99 9 2 C9 3.65 9 5.3 9 7 C5.625 7.1875 5.625 7.1875 2 7 C0 4 0 4 0 0 Z " fill="#161312" transform="translate(253,292)"/>
<path d="M0 0 C0.66 0 1.32 0 2 0 C2 4.29 2 8.58 2 13 C4.64 13 7.28 13 10 13 C10 13.66 10 14.32 10 15 C6.7 15 3.4 15 0 15 C0 10.05 0 5.1 0 0 Z " fill="#555555" transform="translate(262,316)"/>
<path d="M0 0 C0.125 2.875 0.125 2.875 0 6 C-2 8 -2 8 -4.625 8.125 C-5.40875 8.08375 -6.1925 8.0425 -7 8 C-7.25 5.6875 -7.25 5.6875 -7 3 C-4.51960083 0.51960083 -3.55547616 0 0 0 Z " fill="#F9F7F5" transform="translate(189,293)"/>
<path d="M0 0 C1.57984913 2.01071707 2.94266986 3.88196736 4.0625 6.1875 C4.86702161 8.17892157 4.86702161 8.17892157 7 9 C7 9.66 7 10.32 7 11 C3.37 11 -0.26 11 -4 11 C-4 10.34 -4 9.68 -4 9 C-3.34 9 -2.68 9 -2 9 C-1.67 7.68 -1.34 6.36 -1 5 C-0.67 6.32 -0.34 7.64 0 9 C0.66 9 1.32 9 2 9 C1.01 6.36 0.02 3.72 -1 1 C-0.67 0.67 -0.34 0.34 0 0 Z " fill="#FEAA75" transform="translate(227,304)"/>
<path d="M0 0 C1.134375 0.020625 2.26875 0.04125 3.4375 0.0625 C3.4375 1.7125 3.4375 3.3625 3.4375 5.0625 C0.1375 5.0625 -3.1625 5.0625 -6.5625 5.0625 C-4.06692478 0.07134956 -4.06692478 0.07134956 0 0 Z " fill="#090808" transform="translate(349.5625,292.9375)"/>
<path d="M0 0 C1.98 0 3.96 0 6 0 C6 0.66 6 1.32 6 2 C5.34 2 4.68 2 4 2 C3.67 9.26 3.34 16.52 3 24 C2.01 23.67 1.02 23.34 0 23 C0.66 23 1.32 23 2 23 C2 16.07 2 9.14 2 2 C1.34 2 0.68 2 0 2 C0 1.34 0 0.68 0 0 Z " fill="#FF914D" transform="translate(281,290)"/>
<path d="M0 0 C2.31 0 4.62 0 7 0 C7.66 1.32 8.32 2.64 9 4 C8 5 8 5 6.15234375 5.09765625 C4.1015625 5.06510417 2.05078125 5.03255208 0 5 C0 3.35 0 1.7 0 0 Z " fill="#F1F1F1" transform="translate(200,324)"/>
<path d="M0 0 C2.475 0.495 2.475 0.495 5 1 C5.33 2.32 5.66 3.64 6 5 C6.66 5 7.32 5 8 5 C8.33 4.01 8.66 3.02 9 2 C9 3.32 9 4.64 9 6 C6.1875 6.625 6.1875 6.625 3 7 C2.01 6.34 1.02 5.68 0 5 C-0.1875 2.375 -0.1875 2.375 0 0 Z " fill="#1B1511" transform="translate(155,292)"/>
<path d="M0 0 C2.31 0 4.62 0 7 0 C7.33 1.32 7.66 2.64 8 4 C5.29120665 5.35439668 2.99066732 5.06501451 0 5 C0 3.35 0 1.7 0 0 Z " fill="#ECECEC" transform="translate(200,318)"/>
<path d="M0 0 C0.66 0 1.32 0 2 0 C2.16435547 0.99580078 2.16435547 0.99580078 2.33203125 2.01171875 C3.21136023 6.90879478 3.99451714 10.90161428 7 15 C3.34683329 13.75023244 2.21934164 13.32901247 0 10 C-0.1953125 7.51953125 -0.1953125 7.51953125 -0.125 4.8125 C-0.10695313 3.91144531 -0.08890625 3.01039063 -0.0703125 2.08203125 C-0.04710937 1.39496094 -0.02390625 0.70789063 0 0 Z " fill="#FECEB1" transform="translate(338,298)"/>
<path d="M0 0 C2.62901288 1.52206009 4.84365964 2.84365964 7 5 C6.01 6.485 6.01 6.485 5 8 C5 7.34 5 6.68 5 6 C2.69 6.66 0.38 7.32 -2 8 C-2.625 6.125 -2.625 6.125 -3 4 C-2.34 3.34 -1.68 2.68 -1 2 C-0.67 1.34 -0.34 0.68 0 0 Z " fill="#A26D4D" transform="translate(184,287)"/>
<path d="M0 0 C0.66 0 1.32 0 2 0 C4.80908387 4.2136258 4.69707949 8.04749342 4 13 C2 15.625 2 15.625 0 17 C0.165 16.484375 0.33 15.96875 0.5 15.4375 C1.28441199 11.61349155 1.77854287 7.55708573 0 4 C0 2.68 0 1.36 0 0 Z " fill="#FDCEB1" transform="translate(263,294)"/>
<path d="M0 0 C0.99 0 1.98 0 3 0 C3 2.64 3 5.28 3 8 C2.01 8.33 1.02 8.66 0 9 C-1 8 -1 8 -1.125 4.5 C-1 1 -1 1 0 0 Z " fill="#FDC4A1" transform="translate(354,302)"/>
<path d="M0 0 C0.33 0 0.66 0 1 0 C1.33 5.61 1.66 11.22 2 17 C2.66 17.33 3.32 17.66 4 18 C4 18.66 4 19.32 4 20 C2.02 20 0.04 20 -2 20 C-2 19.34 -2 18.68 -2 18 C-1.34 18 -0.68 18 0 18 C0 12.06 0 6.12 0 0 Z " fill="#FE995A" transform="translate(305,295)"/>
<path d="M0 0 C1.98 0 3.96 0 6 0 C6 1.65 6 3.3 6 5 C4.02 5 2.04 5 0 5 C0 3.35 0 1.7 0 0 Z " fill="#0B0B0B" transform="translate(289,293)"/>
<path d="M0 0 C0.66 0.99 1.32 1.98 2 3 C-1.3 3.66 -4.6 4.32 -8 5 C-8.33 4.01 -8.66 3.02 -9 2 C-5.54970958 -0.30019361 -4.05445642 -0.43132515 0 0 Z " fill="#E19160" transform="translate(350,290)"/>
<path d="M0 0 C2 1 2 1 3.125 4.0625 C3.41375 5.031875 3.7025 6.00125 4 7 C1.69 7 -0.62 7 -3 7 C-2.01 4.69 -1.02 2.38 0 0 Z " fill="#FAEBE1" transform="translate(219,298)"/>
<path d="M0 0 C1.98 0 3.96 0 6 0 C5.34 0.66 4.68 1.32 4 2 C4.99 3.98 5.98 5.96 7 8 C6.01 8.495 6.01 8.495 5 9 C4.01 8.34 3.02 7.68 2 7 C2 5.68 2 4.36 2 3 C1.34 2.67 0.68 2.34 0 2 C0 1.34 0 0.68 0 0 Z " fill="#DA8048" transform="translate(215,290)"/>
<path d="M0 0 C1.32 0 2.64 0 4 0 C4 1.65 4 3.3 4 5 C2.68 5.33 1.36 5.66 0 6 C-0.38218767 4.34385343 -0.71395102 2.67542976 -1 1 C-0.67 0.67 -0.34 0.34 0 0 Z " fill="#DEDEDE" transform="translate(25,294)"/>
<path d="M0 0 C1.98 0 3.96 0 6 0 C6 0.66 6 1.32 6 2 C7.98 2 9.96 2 12 2 C12 2.33 12 2.66 12 3 C9.69 3 7.38 3 5 3 C5 4.65 5 6.3 5 8 C4.67 8 4.34 8 4 8 C4 6.35 4 4.7 4 3 C2.68 2.67 1.36 2.34 0 2 C0 1.34 0 0.68 0 0 Z " fill="#C78B65" transform="translate(318,290)"/>
<path d="M0 0 C1.75 0.0625 1.75 0.0625 4 1 C5.59501537 3.24164322 6.74543018 5.53566643 8 8 C5.04987143 6.63029745 2.4347778 5.17390875 0 3 C0 2.01 0 1.02 0 0 Z " fill="#FEBE96" transform="translate(186,305)"/>
<path d="M0 0 C1.65 0 3.3 0 5 0 C5.33 2.31 5.66 4.62 6 7 C5.34 7 4.68 7 4 7 C3.896875 6.360625 3.79375 5.72125 3.6875 5.0625 C3.460625 4.381875 3.23375 3.70125 3 3 C2.01 2.67 1.02 2.34 0 2 C0 1.34 0 0.68 0 0 Z " fill="#F3955B" transform="translate(157,290)"/>
<path d="M0 0 C1.32 0 2.64 0 4 0 C4 0.66 4 1.32 4 2 C4.66 2.33 5.32 2.66 6 3 C5.0409375 3.433125 5.0409375 3.433125 4.0625 3.875 C1.84793921 4.82823451 1.84793921 4.82823451 1 7 C0.34 7 -0.32 7 -1 7 C-0.67 4.69 -0.34 2.38 0 0 Z " fill="#FEA56F" transform="translate(140,290)"/>
<path d="M0 0 C1.98 0 3.96 0 6 0 C6 0.66 6 1.32 6 2 C5.34 2 4.68 2 4 2 C4 3.65 4 5.3 4 7 C3.67 7 3.34 7 3 7 C3 5.35 3 3.7 3 2 C2.01 2 1.02 2 0 2 C-0.33 2.66 -0.66 3.32 -1 4 C-0.67 2.68 -0.34 1.36 0 0 Z " fill="#B26E44" transform="translate(151,290)"/>
<path d="M0 0 C2.97 0 5.94 0 9 0 C7.02 0.99 7.02 0.99 5 2 C4.01 3.485 4.01 3.485 3 5 C2.67 4.01 2.34 3.02 2 2 C1.34 2 0.68 2 0 2 C0 1.34 0 0.68 0 0 Z " fill="#FE9A5C" transform="translate(182,301)"/>
<path d="M0 0 C0.99 0.33 1.98 0.66 3 1 C2.34 2.98 1.68 4.96 1 7 C0.34 7 -0.32 7 -1 7 C-1.04254356 5.00045254 -1.04080783 2.99958364 -1 1 C-0.67 0.67 -0.34 0.34 0 0 Z " fill="#985D39" transform="translate(177,291)"/>
<path d="M0 0 C0.66 0.33 1.32 0.66 2 1 C2 3.31 2 5.62 2 8 C1.34 8 0.68 8 0 8 C-0.79953138 4.71303767 -1.09658936 3.28976808 0 0 Z " fill="#FDC8A8" transform="translate(190,292)"/>
<path d="M0 0 C1.98 0 3.96 0 6 0 C6 0.66 6 1.32 6 2 C5.34 2 4.68 2 4 2 C4 3.98 4 5.96 4 8 C3.67 8 3.34 8 3 8 C3 6.02 3 4.04 3 2 C2.01 2 1.02 2 0 2 C0 1.34 0 0.68 0 0 Z " fill="#B2693C" transform="translate(281,290)"/>
<path d="M0 0 C0.33 0 0.66 0 1 0 C1.02698189 1.62490954 1.04638757 3.24994633 1.0625 4.875 C1.07410156 5.77992188 1.08570313 6.68484375 1.09765625 7.6171875 C1 10 1 10 0 12 C-0.99 11.67 -1.98 11.34 -3 11 C-2.67 10.34 -2.34 9.68 -2 9 C-1.34 9 -0.68 9 0 9 C0 6.03 0 3.06 0 0 Z " fill="#FEB487" transform="translate(268,298)"/>
<path d="M0 0 C0.33 0 0.66 0 1 0 C1 1.98 1 3.96 1 6 C-0.65 6 -2.3 6 -4 6 C-2.69593116 3.98079663 -1.36176581 1.98075027 0 0 Z " fill="#EAEAEA" transform="translate(406,288)"/>
</svg>
